<?xml version="1.0" encoding="UTF-8" standalone="no"?>
<svg
   xmlns:dc="http://purl.org/dc/elements/1.1/"
   xmlns:cc="http://creativecommons.org/ns#"
   xmlns:rdf="http://www.w3.org/1999/02/22-rdf-syntax-ns#"
   xmlns:svg="http://www.w3.org/2000/svg"
   xmlns="http://www.w3.org/2000/svg"
   id="svg8"
   version="1.1"
   viewBox="0 0 24 23.999996"
   height="23.999996"
   width="24">
  <defs
     id="defs2">
    <marker
       style="overflow:visible"
       id="Arrow1Lstart"
       refX="0.0"
       refY="0.0"
       orient="auto">
      <path
         transform="scale(0.8) translate(12.5,0)"
         style="fill-rule:evenodd;stroke:#ffffff;stroke-width:1pt;stroke-opacity:1;fill:#545353;fill-opacity:1"
         d="M 0.0,0.0 L 5.0,-5.0 L -12.5,0.0 L 5.0,5.0 L 0.0,0.0 z "
         id="path909" />
    </marker>
  </defs>
  <metadata
     id="metadata5">
    <rdf:RDF>
      <cc:Work
         rdf:about="">
        <dc:format>image/svg+xml</dc:format>
        <dc:type
           rdf:resource="http://purl.org/dc/dcmitype/StillImage" />
        <dc:title></dc:title>
      </cc:Work>
    </rdf:RDF>
  </metadata>
  <ellipse
     ry="0.25412494"
     rx="0.26193744"
     style="fill:#545353;fill-opacity:1;stroke:#ffffff;stroke-width:0.07566904;stroke-miterlimit:4;stroke-dasharray:none;stroke-opacity:1"
     id="path3808"
     cx="11.999996"
     cy="12.000001" />
  <path
     style="fill:#545353;fill-opacity:1;stroke:#ffffff;stroke-width:0.09;stroke-linejoin:miter;stroke-miterlimit:4;stroke-dasharray:none;stroke-opacity:1;paint-order:normal"
     d="m 0.045,12.04673 6.092643,0.05136 4.264632,0.06776 v -0.169759 -0.16195 L 6.137643,11.901451 0.045,11.965171 v 0.03836 z"
     id="rect4632-6" />
  <path
     style="fill:#545353;fill-opacity:1;stroke:#ffffff;stroke-width:0.09;stroke-linejoin:miter;stroke-miterlimit:4;stroke-dasharray:none;stroke-opacity:1;paint-order:normal"
     d="m 12.046732,23.954996 0.05136,-6.092643 0.06776,-4.264632 h -0.169759 -0.16195 l 0.06731,4.264632 0.06372,6.092643 h 0.03836 z"
     id="rect4632-6-0" />
  <path
     style="fill:#545353;fill-opacity:1;stroke:#ffffff;stroke-width:0.09;stroke-linejoin:miter;stroke-miterlimit:4;stroke-dasharray:none;stroke-opacity:1;paint-order:normal"
     d="m 23.955,11.953266 -6.092643,-0.05136 -4.264632,-0.06776 v 0.169759 0.16195 l 4.264632,-0.06731 6.092643,-0.06372 v -0.03836 z"
     id="rect4632-6-4" />
  <path
     style="fill:#545353;fill-opacity:1;stroke:#ffffff;stroke-width:0.09;stroke-linejoin:miter;stroke-miterlimit:4;stroke-dasharray:none;stroke-opacity:1;paint-order:normal"
     d="m 11.953268,0.045 -0.05136,6.092643 -0.06776,4.264632 h 0.169759 0.16195 L 12.098547,6.137643 12.034827,0.045 h -0.03836 z"
     id="rect4632-6-9" />
</svg>
