<?xml version="1.0" encoding="utf-8"?>
<!-- Generator: Adobe Illustrator 20.0.0, SVG Export Plug-In . SVG Version: 6.00 Build 0)  -->
<svg version="1.1" id="Layer_1" xmlns="http://www.w3.org/2000/svg" xmlns:xlink="http://www.w3.org/1999/xlink" x="0px" y="0px"
	 viewBox="0 0 55.2 37.2" style="enable-background:new 0 0 55.2 37.2;" xml:space="preserve">
<style type="text/css">
	.st0{fill:none;}
	.st1{fill:none;stroke:#FFFFFF;stroke-width:1.15;stroke-miterlimit:3.8637;}
	.st2{fill:#FFFFFF;}
	.st3{clip-path:url(#SVGID_2_);}
	.st4{fill:#DA3D34;}
	.st5{fill:none;stroke:#DA3D34;stroke-miterlimit:3.8637;}
	.st6{fill:none;stroke:#C7C8CA;stroke-width:5;stroke-miterlimit:3.8637;}
</style>
<g id="Background">
</g>
<g id="Guides">
</g>
<g id="Foreground">
</g>
<g id="Layer_1_1_">
	<g>
		<line class="st0" x1="27.2" y1="16.4" x2="36.1" y2="16.4"/>
		<g>
			<path class="st1" d="M3.5,7.3C3.2,4,6.3,1,10.6,0.6c1.4-0.1,2.7,0,3.8,0.4"/>
			<line class="st1" x1="0" y1="28" x2="10.8" y2="28"/>
			<line class="st1" x1="0.1" y1="12.7" x2="10.9" y2="12.7"/>
			<path class="st2" d="M7.9,1.5l0,26.5h-5V6.9C2.9,4.1,5.1,1.5,7.9,1.5z"/>
		</g>
		<g>
			<g>
				<defs>
					<circle id="SVGID_1_" cx="26.2" cy="16.4" r="12.9"/>
				</defs>
				<clipPath id="SVGID_2_">
					<use xlink:href="#SVGID_1_"  style="overflow:visible;"/>
				</clipPath>
				<g class="st3">
					<g>
						<g>
							<circle class="st4" cx="27.8" cy="18.3" r="2.5"/>
							<path class="st4" d="M27.8,18.3"/>
						</g>
						<g>
							<circle class="st5" cx="27.8" cy="18.3" r="2.5"/>
							<path class="st5" d="M27.8,18.3"/>
						</g>
					</g>
					<path class="st6" d="M33.6,23.8c-1.9,1.9-4.5,3-7.4,3c-5.8,0-10.5-4.7-10.5-10.5c0-5.8,4.7-10.5,10.5-10.5
						c2.9,0,5.5,1.2,7.4,3.1"/>
					<line class="st6" x1="33.6" y1="16.4" x2="33.6" y2="26.9"/>
				</g>
			</g>
		</g>
		<g>
			<circle class="st0" cx="26.2" cy="16.4" r="12.9"/>
			<path class="st0" d="M26.2,16.4"/>
		</g>
		<g>
			<g>
				<polygon class="st2" points="39.2,12.7 44.1,12.7 44.1,36.6 39.2,36.6 				"/>
				<path class="st2" d="M41.6,24.7"/>
			</g>
			<g>
				<ellipse class="st1" cx="48.6" cy="20.8" rx="6" ry="7.7"/>
				<path class="st1" d="M48.6,20.8"/>
			</g>
			<path class="st2" d="M50.1,13.3c2.2,0.7,4.5,3.5,4.5,7.5c0,3.9-2.4,6.9-4.5,7.6L50.1,13.3z"/>
			<line class="st1" x1="36.6" y1="12.7" x2="44.1" y2="12.7"/>
			<line class="st1" x1="37.2" y1="36.6" x2="47.2" y2="36.6"/>
		</g>
	</g>
</g>
</svg>
