<?xml version="1.0" encoding="utf-8"?>
<!-- Generator: Adobe Illustrator 20.0.0, SVG Export Plug-In . SVG Version: 6.00 Build 0)  -->
<svg version="1.1" id="Layer_1" xmlns="http://www.w3.org/2000/svg" xmlns:xlink="http://www.w3.org/1999/xlink" x="0px" y="0px"
	 viewBox="0 0 58.3 32.5" style="enable-background:new 0 0 58.3 32.5;" xml:space="preserve">
<style type="text/css">
	.st0{fill:none;stroke:#FFFFFF;stroke-width:1.15;stroke-miterlimit:3.8637;}
	.st1{fill:#FFFFFF;}
	.st2{clip-path:url(#SVGID_2_);}
	.st3{fill:#DA3D34;}
	.st4{fill:none;stroke:#DA3D34;stroke-miterlimit:3.8637;}
	.st5{fill:none;stroke:#C7C8CA;stroke-width:5;stroke-miterlimit:3.8637;}
	.st6{clip-path:url(#SVGID_4_);}
</style>
<g id="Background">
</g>
<g id="Guides">
</g>
<g id="Foreground">
</g>
<g id="Layer_1_1_">
	<g>
		<g>
			<path class="st0" d="M47.2,7.3C46.9,4,50.1,1,54.3,0.6c1.4-0.1,2.7,0,3.8,0.4"/>
			<line class="st0" x1="43.8" y1="28" x2="54.5" y2="28"/>
			<line class="st0" x1="43.9" y1="12.7" x2="54.7" y2="12.7"/>
			<path class="st1" d="M51.6,1.5l0,26.5h-5V6.9C46.6,4.1,48.9,1.5,51.6,1.5z"/>
		</g>
		<g>
			<g>
				<defs>
					<circle id="SVGID_1_" cx="33.7" cy="16.4" r="12.9"/>
				</defs>
				<clipPath id="SVGID_2_">
					<use xlink:href="#SVGID_1_"  style="overflow:visible;"/>
				</clipPath>
				<g class="st2">
					<g>
						<g>
							<circle class="st3" cx="35.3" cy="18.3" r="2.5"/>
							<path class="st3" d="M35.3,18.3"/>
						</g>
						<g>
							<circle class="st4" cx="35.3" cy="18.3" r="2.5"/>
							<path class="st4" d="M35.3,18.3"/>
						</g>
					</g>
					<path class="st5" d="M41,23.8c-1.9,1.9-4.5,3-7.4,3c-5.8,0-10.5-4.7-10.5-10.5S27.9,5.9,33.7,5.9c2.9,0,5.5,1.2,7.4,3.1"/>
					<line class="st5" x1="41.1" y1="16.4" x2="41.1" y2="26.9"/>
				</g>
			</g>
		</g>
		<g>
			<g>
				<defs>
					<circle id="SVGID_3_" cx="33.7" cy="16.4" r="12.9"/>
				</defs>
				<clipPath id="SVGID_4_">
					<use xlink:href="#SVGID_3_"  style="overflow:visible;"/>
				</clipPath>
				<g class="st6">
					<path class="st5" d="M41,23.8c-1.9,1.9-4.5,3-7.4,3c-5.8,0-10.5-4.7-10.5-10.5S27.9,5.9,33.7,5.9c2.9,0,5.5,1.2,7.4,3.1"/>
					<line class="st5" x1="41.1" y1="16.4" x2="41.1" y2="26.9"/>
				</g>
			</g>
		</g>
		<g>
			<g>
				<polygon class="st1" points="2.5,8 7.5,8 7.5,31.9 2.5,31.9 				"/>
				<path class="st1" d="M5,20"/>
			</g>
			<g>
				<ellipse class="st0" cx="12" cy="16.1" rx="6" ry="7.7"/>
				<path class="st0" d="M12,16.1"/>
			</g>
			<path class="st1" d="M13.5,8.6C15.7,9.2,18,12.1,18,16c0,3.9-2.4,6.9-4.5,7.6L13.5,8.6z"/>
			<line class="st0" x1="0" y1="8" x2="7.5" y2="8"/>
			<line class="st0" x1="0.6" y1="31.9" x2="10.6" y2="31.9"/>
		</g>
	</g>
</g>
</svg>
