<svg><defs><g id="filter"><path d="M 3,2L 20.9888,2L 21,2L 21,2.01122L 21,3.99999L 20.9207,3.99999L 14,10.9207L 14,22.909L 9.99999,18.909L 10,10.906L 3.09405,3.99999L 3,3.99999L 3,2 Z "/></g><g id="filter-remove"><path d="M 14.7574,20.8284L 17.6036,17.9822L 14.7574,15.1716L 16.1716,13.7574L 19.0178,16.568L 21.8284,13.7574L 23.2426,15.1716L 20.432,17.9822L 23.2426,20.8284L 21.8284,22.2426L 19.0178,19.3964L 16.1716,22.2426L 14.7574,20.8284 Z M 2,2L 19.9888,2.00001L 20,2.00001L 20,2.01122L 20,3.99999L 19.9207,3.99999L 13,10.9207L 13,22.909L 8.99999,18.909L 8.99999,10.906L 2.09405,3.99999L 2,3.99999L 2,2 Z "/></g><g id="chevron-double-left"><path d="M 18.414,7.41398L 17,6L 11,12L 17,18L 18.414,16.586L 13.828,12L 18.414,7.41398 Z M 12.414,7.41398L 11,6L 5.00001,12L 11,18L 12.414,16.586L 7.82801,12L 12.414,7.41398 Z "/></g><g id="chevron-double-right"><path d="M 5.586,7.41398L 7,6L 13,12L 7,18L 5.586,16.586L 10.172,12L 5.586,7.41398 Z M 11.586,7.41399L 13,6.00001L 19,12L 13,18L 11.586,16.586L 16.172,12L 11.586,7.41399 Z "/></g><g id="emoticon-sad"><path d="M 20,12C 20,7.6 16.4,4 12,4C 7.6,4 4,7.6 4,12C 4,16.4 7.6,20 12,20C 16.4,20 20,16.4 20,12 Z M 22,12C 22,17.5 17.5,22 12,22C 6.5,22 2,17.5 2,12C 2,6.5 6.5,2.00001 12,2.00001C 17.5,2.00001 22,6.5 22,12 Z M 15.5,8C 16.3,8 17,8.7 17,9.5C 17,10.3 16.3,11 15.5,11C 14.7,11 14,10.3 14,9.5C 14,8.7 14.7,8 15.5,8 Z M 10,9.5C 10,10.3 9.3,11 8.5,11C 7.7,11 7,10.3 7,9.5C 7,8.7 7.7,8 8.5,8C 9.3,8 10,8.7 10,9.5 Z M 12,14C 13.7524,14 15.2943,14.7212 16.1871,15.8129L 14.7697,17.2302C 14.3175,16.5078 13.2477,16 12,16C 10.7523,16 9.68254,16.5078 9.23024,17.2302L 7.81291,15.8129C 8.7057,14.7212 10.2476,14 12,14 Z "/></g><g id="emoticon-happy"><path d="M 20,12C 20,7.58172 16.4183,4 12,4C 7.58172,4 4,7.58172 4,12C 4,16.4183 7.58172,20 12,20C 16.4183,20 20,16.4183 20,12 Z M 22,12C 22,17.5228 17.5228,22 12,22C 6.47715,22 2,17.5228 2,12C 2,6.47715 6.47715,2.00001 12,2.00001C 17.5228,2.00001 22,6.47715 22,12 Z M 10,9.5C 10,10.3 9.3,11 8.5,11C 7.7,11 7,10.3 7,9.5C 7,8.7 7.7,8 8.5,8C 9.3,8 10,8.7 10,9.5 Z M 17,9.5C 17,10.3 16.3,11 15.5,11C 14.7,11 14,10.3 14,9.5C 14,8.7 14.7,8 15.5,8C 16.3,8 17,8.7 17,9.5 Z M 12,17.2303C 10.2476,17.2303 8.7057,16.509 7.81291,15.4173L 9.23025,14C 9.68254,14.7225 10.7523,15.2302 12,15.2302C 13.2477,15.2302 14.3175,14.7225 14.7697,14L 16.1871,15.4173C 15.2943,16.509 13.7524,17.2303 12,17.2303 Z "/></g><g id="vector-square"><path d="M 2,2L 8,2L 8,4L 16,4L 16,2.00001L 22,2.00001L 22,8L 20,8L 20,16L 22,16L 22,22L 16,22L 16,20L 8,20L 8,22L 2,22L 2,16L 4,16L 4,8L 2,8L 2,2 Z M 16,8L 16,6L 8,6L 8,8L 6,8L 6,16L 8,16L 8,18L 16,18L 16,16L 18,16L 18,8L 16,8 Z M 4,4.00001L 4,6.00001L 5.99999,6.00001L 5.99999,4.00001L 4,4.00001 Z M 18,4.00001L 18,6.00001L 20,6.00001L 20,4.00001L 18,4.00001 Z M 4,18L 4,20L 6,20L 6,18L 4,18 Z M 18,18L 18,20L 20,20L 20,18L 18,18 Z "/></g><g id="table-large"><path d="M 4.00002,3L 20,3C 21.1046,3 22,3.89543 22,5L 22,20C 22,21.1046 21.1046,22 20,22L 4.00001,22C 2.89544,22 2.00001,21.1046 2.00001,20L 2.00002,5C 2.00002,3.89543 2.89545,3 4.00002,3 Z M 4.00002,7L 4.00001,10L 8,10L 8,7.00001L 4.00002,7 Z M 10,7.00001L 9.99999,10L 14,10L 14,7.00001L 10,7.00001 Z M 20,10L 20,7L 16,7.00001L 16,10L 20,10 Z M 4.00002,12L 4.00002,15L 8,15L 8,12L 4.00002,12 Z M 4.00001,20L 8,20L 8,17L 4.00002,17L 4.00001,20 Z M 9.99999,12L 9.99999,15L 14,15L 14,12L 9.99999,12 Z M 9.99999,20L 14,20L 14,17L 9.99999,17L 9.99999,20 Z M 20,20L 20,17L 16,17L 16,20L 20,20 Z M 20,12L 16,12L 16,15L 20,15L 20,12 Z "/></g><g id="map-marker-off"><path d="M 16.3734,16.0998L 11.7464,11.4727L 11.6354,11.3617L 3.2714,2.99874L 1.9994,4.27175L 5.1774,7.44973C 5.0644,7.94771 4.9994,8.46474 4.9994,8.9977C 4.9994,14.2477 11.9994,21.9977 11.9994,21.9977C 11.9994,21.9977 13.6674,20.1467 15.3744,17.6467L 18.7264,20.9977L 19.9994,19.7248M 11.9994,6.4977C 13.3804,6.4977 14.4994,7.61776 14.4994,8.9977C 14.4994,9.7347 14.1744,10.3907 13.6674,10.8477L 17.2994,14.4798C 18.2764,12.6207 18.9994,10.6817 18.9994,8.9977C 18.9994,5.13173 15.8644,1.9977 11.9994,1.9977C 10.0204,1.9977 8.2364,2.82271 6.9634,4.14376L 10.1494,7.32973C 10.6064,6.82271 11.2631,6.4977 11.9994,6.4977 Z "/></g><g id="apple-keyboard-control"><path d="M 19.7782,11.7782L 18.364,13.1924L 12,6.82843L 5.63604,13.1924L 4.22183,11.7782L 12,4L 19.7782,11.7782 Z "/></g><g id="vector-point"><path d="M 12,20L 7,22L 12,11L 17,22L 12,20 Z M 8,2.00001L 16,2.00001L 16,5L 22,5L 22,7L 16,7L 16,10L 8,10L 8,7L 2,7L 2,5L 8,5L 8,2.00001 Z M 10,4.00001L 10,8L 14,8L 14,4.00001L 10,4.00001 Z "/></g><g id="vector-polygon"><path fill-rule="evenodd" d="M 2.0025,2.0025L 2.0025,7.9975L 4.2775,7.9975L 5.56625,16.0012L 3.99875,16.0012L 3.99875,22.0025L 10,22.0025L 10,20.0637L 15,20.0538L 15,22.0025L 21.0013,22.0025L 21.0013,16.0012L 19.17,16.0012L 20,8.99875L 22.0025,8.99875L 22.0025,2.9978L 16.0012,2.9978L 16.0012,6.53375L 14.8,7.9975L 9.59,7.9975L 7.9975,5.82L 7.9975,2.0025M 3.99875,3.99875L 6.00125,3.99875L 6.00125,6.00125L 3.99875,6.00125M 17.9975,5L 20,5L 20,7.0025L 17.9975,7.0025M 6.30875,7.9975L 7.11375,7.9975L 8.99875,10.5862L 8.99875,13.9987L 15,13.9987L 15,10.9125L 16.5675,8.99875L 17.9887,8.99875L 17.1587,16.0012L 15,16.0012L 15,18.0563L 10,18.0613L 10,16.0012L 7.5975,16.0012M 11.0013,10L 12.9975,10L 12.9975,12.0025L 11.0013,12.0025M 6.00125,17.9975L 7.9975,17.9975L 7.9975,20L 6.00125,20M 17.0025,17.9975L 18.9988,17.9975L 18.9988,20L 17.0025,20"/></g><g id="vector-polyline"><path fill-rule="evenodd" d="M 16.0012,2.0025L 16.0012,7.9975L 17.075,7.9975L 14.9463,12.9975L 14.2625,12.9975L 12.0025,9.97125L 12.0025,5L 6.00125,5L 6.00125,11.0012L 6.91375,11.0012L 4.8775,16.0012L 2.0025,16.0012L 2.0025,22.0025L 7.9975,22.0025L 7.9975,16.0012L 7.03625,16.0012L 9.0725,11.0012L 10.2738,11.0012L 12.0025,13.315L 12.0025,18.9988L 17.9975,18.9988L 17.9975,12.9975L 17.1187,12.9975L 19.2475,7.9975L 22.0025,7.9975L 22.0025,2.0025M 17.9975,3.99875L 20,3.99875L 20,6.00125L 17.9975,6.00125M 7.9975,7.0025L 10,7.0025L 10,8.99875L 7.9975,8.99875M 13.9987,15L 16.0012,15L 16.0012,17.0025L 13.9987,17.0025M 3.99875,17.9975L 6.00125,17.9975L 6.00125,20L 3.99875,20"/></g><g id="github"><path fill-rule="evenodd" d="M 11.9991,2C 6.47774,2 2.00001,6.47712 2.00001,12.0006C 2.00001,16.4184 4.86504,20.1665 8.83877,21.489C 9.33909,21.5807 9.52142,21.272 9.52142,21.007C 9.52142,20.7696 9.51282,20.1407 9.50791,19.3062C 6.72636,19.9105 6.13948,17.9657 6.13948,17.9657C 5.68459,16.8105 5.02895,16.5029 5.02895,16.5029C 4.121,15.8824 5.09771,15.895 5.09771,15.895C 6.10143,15.9657 6.62936,16.9256 6.62936,16.9256C 7.52135,18.4537 8.97014,18.0125 9.53984,17.7565C 9.63069,17.1102 9.88914,16.6696 10.1746,16.4196C 7.95415,16.1672 5.61952,15.3093 5.61952,11.4773C 5.61952,10.3856 6.00934,9.49292 6.64902,8.79388C 6.54588,8.54089 6.20271,7.52417 6.74723,6.14739C 6.74723,6.14739 7.58643,5.87851 9.49686,7.17252C 10.2943,6.95073 11.1501,6.8398 12.0003,6.83594C 12.8499,6.8398 13.7051,6.95073 14.5038,7.17252C 16.413,5.87851 17.2509,6.14739 17.2509,6.14739C 17.7967,7.52417 17.4535,8.54089 17.351,8.79388C 17.9919,9.49292 18.3787,10.3856 18.3787,11.4773C 18.3787,15.3189 16.0403,16.1642 13.8131,16.4118C 14.1717,16.7205 14.4915,17.3308 14.4915,18.2637C 14.4915,19.6005 14.4792,20.6791 14.4792,21.007C 14.4792,21.2744 14.6597,21.5855 15.1668,21.4878C 19.1374,20.1629 22,16.4172 22,12.0006C 22,6.47712 17.5223,2 11.9991,2 Z "/></g><g id="help"><path d="M 10,19L 13,19L 13,22L 10,22L 10,19M 12,2C 17.3536,2.2231 19.6774,7.6179 16.5,11.67C 15.67,12.67 14.33,13.33 13.67,14.17C 13,15 13,16 13,17L 10,17C 10,15.33 10,13.92 10.67,12.92C 11.33,11.92 12.67,11.33 13.5,10.67C 15.9157,8.4301 15.32,5.2567 12,5C 10.3431,5 9,6.3431 9,8L 6,8C 6,4.6863 8.68629,2 12,2 Z "/></g><g id="export"><path d="M 23,12L 19,8.00003L 19,11L 10,11L 10,13L 19,13L 19,16M 1.00001,18L 1.00001,6.00002C 1.00001,4.89002 1.9,4.00003 3,4.00003L 15,4.00001C 16.1,4.00001 17,4.89001 17,6.00001L 17,9L 15,9L 15,6.00001L 3,6.00002L 3,18L 15,18L 15,15L 17,15L 17,18C 17,19.1 16.1,20 15,20L 3,20C 1.9,20 1.00001,19.11 1.00001,18 Z "/></g><g id="cube-outline"><path d="M 21,16.5C 21,16.8812 20.7867,17.2125 20.473,17.3813L 12.5664,21.8243C 12.4054,21.9351 12.2103,22 12,22C 11.7897,22 11.5946,21.9351 11.4336,21.8243L 3.52716,17.3814C 3.21335,17.2127 3,16.8812 3,16.5L 3,7.5C 3,7.11876 3.21334,6.78735 3.52716,6.61864L 11.4336,2.17575C 11.5946,2.0649 11.7897,2.00001 12,2.00001C 12.2103,2.00001 12.4053,2.06489 12.5664,2.17574L 20.473,6.61872C 20.7867,6.78746 21,7.11883 21,7.5L 21,16.5 Z M 12.0009,4.15093L 6.04124,7.5L 12.0009,10.8491L 17.9591,7.5L 12.0009,4.15093 Z M 5,15.9149L 11,19.2866L 11,12.5806L 5,9.209L 5,15.9149 Z M 19,15.9149L 19,9.20901L 13,12.5806L 13,19.2875L 19,15.9149 Z "/></g><g id="format-list-checks"><path d="M3,5H9V11H3V5M5,7V9H7V7H5M11,7H21V9H11V7M11,15H21V17H11V15M5,20L1.5,16.5L2.91,15.09L5,17.17L9.59,12.59L11,14L5,20Z"/></g></defs></svg>