<svg><defs><g id="check"><path d="M9 16.17L4.83 12l-1.42 1.41L9 19 21 7l-1.41-1.41z"/></g><g id="logo" transform="translate(-64.693 -766.62)"><path id="path16-2-7" style="fill:#818283;fill-rule:evenodd" d="m66.61 781.87c0.0794-0.0833-0.15061 0.086 0 0zm0.02207 0.30172c-0.06912-0.11342-0.03408 0.0531 0 0zm0.05761 0.19654-0.006-0.014 0.006 0.014zm-0.02719 0.0959-0.0028 0.008 0.0028-0.008zm-0.03933-0.18133 0.0038-0.0194-0.0038 0.0194zm0.0026-0.0231-0.01069-0.0114 0.01069 0.0114zm0.12408-0.15199c0.04349 0.0481 0.04818-0.0824 0 0zm-0.02427 0.29931c-0.02997-0.10749-0.02648 0.0408 0 0zm0.03574-0.34263c0.09151 0.0303-0.0038-0.10877 0 0zm-0.05013 0.26515c-0.17572-0.34008-0.01614 0.11376 0 0zm-0.03999 0.0856 0.0032-0.01-0.0032 0.01zm0.02182-0.002-0.0044 0.0112 0.0044-0.0112zm-0.01111-0.0262c-0.01034-0.23802-0.11342 0.0959 0 0zm-0.000768 0.0824-0.0083-0.008 0.0083 0.008zm-0.30612-0.5976c-0.06738-0.009 0.08497 0.13286 0 0zm-0.03457-0.303c-0.02069-0.21339-0.0254 0.20288 0 0zm0.05367 0.34575c0.05122 0.0535 0.01658-0.0609 0 0zm0.01843-0.34268c-0.08035 0.16324 0.06544-0.0534 0 0zm-0.01823 0.097 0.01291-0.00027-0.01291 0.00027zm-0.04829-0.26664c-0.14284-0.021 0.0071 0.0983 0 0zm0.15265 0.16484c0.0063 0.0664-0.01275-0.0492 0 0zm-0.03979 0.19341 0.0025-0.0144-0.0025 0.0144zm8.0858-7.4434c0.07659 0.042 0.01814-0.0989 0 0zm-7.941 7.6732 0.0054 0.0107-0.0054-0.0107zm-0.11547-0.03c0.06058 0.0972 0.0414-0.0536 0 0zm-0.04532-0.15726c0.15361 0.34313 0.1214-0.0215 0 0zm0.28769 0.55674c-0.0857-0.11858-0.02474 0.0455 0 0zm-0.25778-0.82123c-0.11114-0.01 0.05919 0.16055 0 0zm6.0418-6.937c0.05098-0.0394-0.05621-0.0902 0 0zm-6.7738 4.2629c-0.11024-0.016 0.02561 0.10579 0 0zm18.38-1.5031 0.0035-0.006-0.0035 0.006zm-18.367 1.5309c0.23673-0.0732-0.01049-0.1407 0 0zm11.055 0.78722-0.01961 0.0293 0.01961-0.0293zm5.8793 4.2385c-0.04484-0.44212 1.338-1.4706 0.77422-1.9875-0.27136 0.0358 0.34914-0.051 0.35077-0.48832 0.3182-0.33355 0.20778-1.0705 0.94177-1.1786 0.46402-0.31044 1.1678-0.28085 1.2381-0.93056-0.10879-0.37946 0.57093-0.6587 0.50574-1.186-0.19422-0.1522-0.29794-0.55962-0.24716-0.29022-0.0907-0.0801-0.63151 0.0367-0.47093-0.173 0.08667 0.30211-0.16684 0.26199-0.36974 0.0127-0.29236 0.29643-0.19976 0.90414-0.50728 0.55009-0.02689 0.17568 0.71075-0.90828 0.16461-0.32187 0.81139-0.61539-0.41098-0.50589-0.21362-0.49313-0.08681-0.0216-0.16159-0.44735-0.09184 0.001-0.16063 0.0568-0.27632-0.27793-0.24462 0.0143-0.12948-0.11607-0.67215-0.0906-0.39875-0.0866-0.108-0.0679-0.47263-0.28951-0.40841-0.21416 0.52102-0.13264 0.03119-0.45802-0.13508-0.39563-0.16504-0.21706-0.32702-0.25671-0.33514-0.14594 0.01882-0.27909-0.28838 0.16146-0.17259-0.26089-0.21731-0.0913-0.26982-0.37679-0.26574-0.15852-0.1377 0.0446-0.52631-0.29889-0.37037-0.22543-0.25486-0.23568 0.20271 0.67959-0.03594 0.35731-0.04126 0.0879 0.03414 0.41196 0.01674 0.3474 0.1831 0.27556-0.30353-0.0246-0.21743 0.60261-0.21068-0.32045-0.10179-0.21892-0.34975 0.24488 0.52505-0.99259-0.21257-0.39248-0.34177-0.45549 0.1506-0.0557-0.29875-0.716-0.17575-0.47207-0.62859 0.27996 0.30716-0.29109-0.24074-0.48917-0.13882 0.23269-0.66589-0.11433-0.66563-0.0326-0.12609-0.42809-0.98364-0.0443-0.87966-0.0416-1.1207-0.33301 0.13947 1.1702-0.17364 0.9131 0.20286 0.17069 0.15162 0.83298 0.18294 0.61278-0.33191 0.63506 1.3766 0.81238 0.69108 1.7693-0.54204 0.4824-0.40272 0.58023-0.15168 0.99592 0.15355 0.3124 0.35189 1.3067 0.35275 0.94886 0.10369 0.20572-0.51536-0.0617-0.07009 0.41119-0.45601-0.38377-0.44967 0.23267-0.50183-0.3597-0.69483-0.0234-0.58421-1.169-1.0158-1.4818-0.62826 0.21168-1.0668-0.004-1.8097-0.49837-0.71056-0.36446-1.0918 0.50635-1.097-0.44543-0.22637-0.66479-0.58852 0.0673-0.57479-0.76655-0.05767-0.41645 0.35945-1.2887 0.27638-1.1214 0.0082-0.25901 0.01207-0.63934 0.13918-0.40999 0.78328-0.26204-0.56816-0.66016-0.27614-0.54252-0.28431-0.0854 0.91271 0.2238 0.64164 0.0634 0.10653-0.2232 0.49527-0.18382 0.30419-0.21233 0.4674-0.2599 0.32472-0.81032-0.26153-0.75428-0.46752-0.19095 0.49879-0.20012 0.13309-0.10549-0.42476 0.0709 0.84993 0.34799 0.46197-0.30775-0.16223-0.30923 0.98139 0.20376 0.22131-0.36521-0.0774-0.0945 0.53067 0.13251 0.38618 0.15127 0.40288-0.47668 0.05414-0.77135-0.05327-0.96534 0.12745-0.3335-0.18591-0.4926-0.31721-0.54577-0.75752-0.20803-0.24316 0.67239-0.25914 0.41714-0.01058-0.10554-0.46049 2.0294-0.20729 0.87822-0.41426 0.0848-0.18293-1.1252-0.63972-0.71677 0.14409 0.711-0.02759-0.0658-0.2339-0.13839 0.16673-0.31497-0.54465 0.0794-0.26566-0.34724 0.12294-0.00003-0.53312-1.0872-0.36663-0.76978-0.16876-0.0885-0.25517 0.53974-0.26977 0.22207-0.09775 0.12012-0.22583 0.66732 0.1935 0.80041 0.54839 0.0623 0.53703 0.42563 0.19418 0.34814 0.25709 0.0357-0.50287 0.51445-0.18041 0.96022-0.35836 0.2585-0.4897-0.13632-0.18552-0.1859 0.08579-0.43059-0.32952-0.72125-0.17827-0.49153-0.204-0.1855 0.05455 0.30882-0.1714 0.20698 0.3676 0.2746-0.19048 0.38709-0.18665 0.1038-0.55298 0.042-1.4922-0.59172-1.1784-0.35126-0.01572-0.66397-1.0142 0.27457-0.34639 0.009 0.33326-0.21167 0.29551 0.0481-0.05409 0.10421-0.24456-0.075 0.08326 0.8382-0.09364 0.4794-0.02466 0.56494-0.18193-0.23743-0.14611-0.17621-0.06287-0.15333-0.29118-0.41306-0.62873-0.235-0.52805 0.0153-0.75433-0.3611-0.2988-0.40193-0.22243-0.37279-0.84942-0.50552-1.2683-1.0356-0.56407 0.4748-0.4298 0.092-0.30975-0.18723-0.22243 0.0575-0.16213 0.42982-0.35344 0.0512 0.10178-0.84864-0.59332-0.35141-0.36332-0.26155-0.17245-0.0486-0.23874-0.18062-0.39818 0.0103 0.05029 0.0175-0.3482 0.43542-0.3769 0.19428-0.38174-0.0524 0.86801-0.2569 0.54813-0.26685 0.55471-0.19959-0.42875-0.10865-0.3709-0.10574-0.55119 0.26797 0.0075-0.34701-0.47071-0.0333-0.22515-0.21494-0.08786 0.55564-0.43265-0.1478-0.26568-1.141-1.709 1.2031-1.3232 0.8406-0.587 0.79826-1.159 1.6075-1.7155 2.4274 0.55079 0.34877 0.19813 1.3638 1.029 0.99861-0.05986 0.87252 0.27445 1.7256 0.25973 2.4438-0.12843 0.15053 0.30676-0.0501-0.09755 0.19208-0.044 0.33719-0.38582 0.0823-0.02441 0.38656-0.41157 0.0522 0.34728 0.0871 0.19265 0.27205-0.1803 0.20322 0.25552 0.44661-0.16635 0.11075 0.09683 0.45181 0.19099 0.62518 0.07486 0.63025 0.06431 0.23573 0.45623-0.31309 0.23853 0.12353 0.25181 0.10878 0.02057 0.52174-0.27522 0.26833 0.27747 0.0164 0.3213 0.0338-0.10624 0.11185-0.01385 0.12923 0.63657 0.37273 0.35127 0.35306-0.0895 0.17135 0.43465 0.0316-0.0084 0.15647-0.06955 0.21282 0.19067 0.32532 0.34192 0.14941-0.04433 0.12692-0.05259 0.73362 0.0115 0.41771 0.51116-0.20926-0.12264 0.21064 0.25384 0.21691 0.21198 0.0547-0.18222 0.35147 0.52373 0.40662 2.7008 0.7786 5.538 1.0564 8.341 0.88403 0.26311-0.1576 0.46558 0.26701 0.79736 0.16076 0.31692 0.25741 0.9574 0.19699 1.3995-0.0236 0.85372 0.21054 1.466 0.61198 2.0497 1.0008 0.9482 0.69022-0.14284 2.1984 0.44462 1.8123 0.9936-0.34835 0.86873-1.345 1.8295-1.4492 0.08037-0.33007 0.263-0.70159 0.53497-0.91176zm4.1625-1.9375c-0.28386-0.17484-1.0259 0.15078-0.79096 0.12981-0.26438 0.0742-0.9952-0.55662-0.78312-0.30673-0.11246 0.0249 0.01941-0.70497-0.31411-0.16623-1.0386-0.002 0.65311-0.30111 0.0551-0.71891-0.43344-0.34377-1.3728 0.98981-1.4596 1.7199-0.45827 0.22286-0.80328 1.4071-0.778 1.2869 0.6415-0.18607 1.3066-0.41638 1.0767-1.1385-0.05161-1.1298 0.75223-0.50684 0.98628 0.044 0.21494 0.34453 0.54792-0.0587 0.56095-0.0805 0.34314-0.66423 0.43673 0.005 0.34873-0.24162 0.755-0.38724-0.4375 0.50527-0.22081 0.4835-0.11908 0.46753 0.51413 0.48969 0.35016 0.47347-0.03237-0.11405 0.0184-0.77222 0.1447-0.5837 0.15626-0.14594 0.55375-0.58449 0.39519-0.37794 0.17605-0.16925 0.26464-0.37048 0.42877-0.52345zm-15.403-8.0204 0.0041 0.003-0.0041-0.003zm-5.702 4.9669c0.07724 0.0251 0.07605-0.0864 0 0zm6.7246-4.6372c0.01487 0.12334 0.06443-0.0676 0 0zm0.07143 0.33182 0.01992-0.0576-0.01992 0.0576zm0.07983-0.0986c0.1231 0.0366-0.08314-0.13326 0 0zm-6.2301 6.9464c-0.12996-0.16404 0.03369 0.32866 0 0zm6.1427-7.1636c0.06522 0.0284 0.0255-0.14324 0 0zm-0.0045 0.0463c0.0251 0.11523 0.09245-0.0657 0 0zm-5.7822 7.7257-0.01269 0.01 0.01269-0.01zm5.7922-7.9469c0.09766 0.007-0.01159-0.0928 0 0zm13.302 9.3779c-0.05414-0.007 0.02855 0.084 0 0zm-19.071-1.1072c-0.08503-0.0943-0.0056 0.0582 0 0zm18.458 0.7119c-0.07938-0.11991-0.01166 0.21016 0 0zm0.23116 0.0773-0.005 0.0743 0.005-0.0743zm-8.3913-8.8193-0.0051 0.002 0.0051-0.002zm7.0407 2.9849 0.0017 0.001-0.0017-0.001zm-17.823 4.02c-0.13039-0.0482-0.05414 0.0628 0 0zm-0.14518-1.0822c-0.36823 0.03-0.32369 0.27976 0 0zm0.08296 1.0526c-0.11948-0.10103-0.02479 0.0807 0 0zm-0.37336-1.0285c-0.01616 0.1179 0.15389-0.0267 0 0zm0.06964-0.0262c-0.08343-0.11181-0.0147 0.1167 0 0zm-0.02934-0.20872c0.13452-0.0919-0.009-0.0973 0 0zm-0.004-0.0865c-0.19056 0.29391 0.05536 0.1331 0 0zm-0.03646 0.4389c-0.0044-0.26047-0.15055 0.25389 0 0zm-0.02709-0.17349c-0.093-0.0238 0.0095 0.10133 0 0zm0.02033 0.0277c-0.13242 0.0446 0.03539 0.13326 0 0zm0.03625-0.34355-0.03913 0.0964 0.03913-0.0964zm-0.12776 1.0337 0.0054-0.0129-0.0054 0.0129zm0.0062-0.89871c0.07031 0.1659 0.092-0.12999 0 0zm0.04788 0.5147c-0.08057-0.22429-0.04397 0.24849 0 0zm-0.07471-0.39769c0.14211-0.14-0.07663-0.0881 0 0zm-0.24575-0.94981c0.0482 0.11306 0.23405-0.12222 0 0zm0.03339 0.27883c0.25838 0.60393-0.08351-0.51336 0 0zm0.19229 0.50527c-0.05046-0.39857-0.10714 0.18838 0 0zm-0.84606-1.1027-0.0077 0.01 0.0077-0.01zm0.43542 0.0786c-0.59976 0.27246 0.01134 0.0401-0.36566-0.15374-0.14892 0.36983-0.07223 0.75572 0.22898 0.30188l0.09295-0.0739 0.04373-0.0743zm-0.33849-0.17144c0.05971-0.0107-0.0347-0.0573 0 0zm0.93204 0.73094c0.09994-0.19713-0.23573 0.19001 0 0zm-0.30008-0.68567c-0.19923 0.0901 0.12205 0.0839 0 0zm0.03933 0.40623c-0.10473 0.17994 0.17748 0.58236 0.05356 0.12298l-0.05356-0.12298zm0.12295 0.38908c-0.13385 0.19183 0.09725-0.0446 0 0zm0.11681-0.0849c-0.18318 0.0343 0.04921 0.18555 0 0zm-0.33874-0.50276 0.0079 0.0419-0.0079-0.0419zm0.06462-0.084-0.02297 0.0155 0.02297-0.0155zm0.07891 0.1482c-0.07207 0.0252 0.04942 0.0658 0 0zm-0.01854-0.0693c-0.04286 0.0268 0.08617 0.0547 0 0zm0.13309 0.64394c-0.15494 0.19995 0.17836 0.47998 0.0076-0.0285l-0.0076 0.0285zm0.37802 2.4172 0.01829-0.0232-0.01829 0.0232zm-0.36486-1.2608c0.05504 0.008-0.02373-0.0398 0 0zm0.32614 1.2711 0.0014 0.009-0.0014-0.009zm-0.2545-1.0246c0.16153 0.10276-0.0401-0.0772 0 0zm0.27632 1.0165 0.0046-0.004-0.0046 0.004zm0.49713 0.35785c-0.15223-0.37678-0.26835-1.0804-0.7757-1.357-0.58291-0.52011-0.123 0.24995-0.14799 0.0346-0.36842-0.0205 0.16001 0.61013 0.15354 0.42742 0.08337 0.0355 0.39311 0.2982 0.15459 0.26014-0.01837 0.40577 0.35211 0.006 0.2001 0.45121 0.10346 0.0613 0.32409 0.34797 0.41545 0.18359zm-0.60451-1.2558c0.2067 0.0244-0.17627-0.0868 0 0zm0.0019-0.15614c-0.07-0.082-0.13442 0.0281 0 0zm-0.09146-0.0466 0.05388 0.006-0.05388-0.006zm-0.0039 0.13821 0.0184 0.0194-0.0184-0.0194zm0.19572-0.0416c-0.20483-0.095-0.08349 0.1757 0 0zm-0.16448 0.063c0.07326 0.0748 0.02616-0.0489 0 0zm0.04552 0.007 0.0679-0.002-0.0679 0.002zm0.07471 0.91662 0.000668 0.009-0.000668-0.009zm-0.50824-2.718c-0.02021-0.21172-0.08879 0.13509 0 0zm0.0091 0.31769c0.07722 0.0146-0.06027-0.0951 0 0zm0.11353 1.6762c0.01143-0.0642-0.0604 0.0307 0 0zm-0.12049-1.621c0.06483 0.0904-0.01209-0.0937 0 0zm0.07794-0.0909c-0.09156 0.0779 0.09312 0.18472 0 0zm-0.79322-0.22004c0.08786 0.0346-0.05858-0.0728 0 0zm0.7419 0.29675c-0.03249-0.0629 0.0034-0.0213 0 0zm0.47117 2.3432 0.0036 0.009-0.0036-0.009zm-0.40915-1.2139c-0.14417 0.006 0.03699-0.006 0 0zm0.15112 0.74524c0.10715-0.25931-0.22741-0.0467 0 0zm0.28108 0.46486 0.000426 0.007-0.000426-0.007zm-0.26306-0.44776c0.02436-0.0538 0.01557-0.003 0 0zm0.10851 0.25302c-0.04978-0.0529-0.01286 0.0727 0 0zm-0.02125-0.0476c0.05162-0.16996-0.12902 0.0124 0 0zm0.18696 0.24979-0.0014-0.007 0.0014 0.007zm14.178-3.2181-0.000384-0.0191 0.000384 0.0191zm0.0046 0.0267c0.03903 0.0624-0.0123-0.0684 0 0zm-0.15731-0.50803-0.01562-0.01 0.01562 0.01zm0.10872 0.2417 0.0073 0.0426-0.0073-0.0426zm-0.0055-0.0223-0.0096-0.002 0.0096 0.002zm-0.05254-0.11573v0.0186-0.0186zm-0.0078-0.0234-0.0058 0.017 0.0058-0.017zm0.11599 0.33367-0.01264 0.004 0.01264-0.004zm-0.8754-1.7227 0.01966-0.004-0.01966 0.004zm0.1271 0.13529-0.0038-0.002 0.0038 0.002zm-0.0379 0.0911 0.01317-0.006-0.01317 0.006zm0.77156 1.4302-0.0082 0.011 0.0082-0.011zm-0.8667-1.6733 0.01514 0.007-0.01514-0.007zm0.0171-0.0153 0.0039-0.004-0.0039 0.004zm0.62095 1.2223-0.01483-0.0294 0.01483 0.0294zm-0.11261 0.66141 0.0098-0.009-0.0098 0.009zm0.03063-0.0182 0.0047-0.0103-0.0047 0.0103zm-0.0806-0.11153-0.0053 0.002 0.0053-0.002zm0.41238 2.1766-0.01124-0.001 0.01124 0.001zm-0.12705-1.6788 0.0761-0.13077-0.0761 0.13077zm-0.1693-0.42011 0.0027 0.01-0.0027-0.01zm0.32108 2.3187-0.0028-0.006 0.0028 0.006zm-0.21907-2.8681c-0.08733-0.11155 0.03495 0.0997 0 0zm-0.09494 0.54521-0.0026-0.006 0.0026 0.006zm0.19434-0.32067 0.0046-0.006-0.0046 0.006zm-0.04133-0.12914c-0.06824-0.0855 0.0253 0.0895 0 0zm-0.10882 0.40761c0.01767 0.0445 0.0041-0.0669 0 0zm-0.05643 0.0323 0.000768 0.008-0.000768-0.008zm-0.44398-1.6415-0.0058-0.006 0.0058 0.006zm0.34734 1.5849-0.000691 0.003 0.000691-0.003zm6.7138 2.1481 0.0056-0.004-0.0056 0.004zm0.40234 0.49042c-0.37866-0.24004-0.59311 0.65506-0.32521 0.32326 0.12245 0.0192-0.09064-1.1173-0.17136-0.36299-0.11131 0.67927 0.3912 0.46523 0.49657 0.0397zm-0.24544 0.35559c-0.12243 0.0948 0.1077 0.0312 0 0zm-3.9678 1.7879-0.0103 0.0208 0.0103-0.0208zm0.0381 0.0175c0.41511-0.35178-0.28519 0.0962 0 0zm0.02351-0.1038c-0.06018-0.046-0.04948 0.1624 0 0zm5.8002-3.5918c-0.10908-0.76166-0.26818 0.012-0.36442-0.61262 0.05979 0.62551-0.42021 0.18164-0.17971 0.0454 0.10359-0.52879-0.261 0.27648-0.14584-0.0556-0.1931 0.0526-0.68556-0.35659-0.34985-0.32499-0.16669 0.0271-0.17285 0.55683-0.30745 0.16822 0.05338 0.22273-0.2861 0.24035-0.25746 0.12816 0.04297-0.75572-0.28171 0.67314-0.28735-0.36682-0.06247-0.26625-0.32299-0.47372-0.18208-0.52547-0.24192 0.69994 0.03189 1.0938 0.04438 1.2204 0.05708 0.15993 0.03552 0.66375-0.08816 0.57416 0.36793-0.28259-0.09005 0.85651 0.50759 0.25425 0.55864-0.11607 0.73145 0.007 0.6391-0.324 0.10068 0.0951 0.3122-0.0872 0.19644-0.17032 0.03639-0.0975-0.0664 0.79938 0.12182 0.2112-0.01516-0.2955 0.138-0.73141 0.31184-0.0771 0.17659-0.59644 0.04066 0.22381 0.34117-0.14476zm-5.8614 3.7828c-0.19175 0.08 0.07553 0.0429 0 0zm5.3733-3.9153-0.04325-0.0602 0.04325 0.0602zm-0.05059-0.39384c-0.19111 0.0905 0.006 0.18746 0 0zm0.02197 0.39835c-0.07406-0.18993 0.01422 0.25327 0 0zm-0.49503 0.29214c0.03424-0.0995-0.12952 0.0687 0 0zm0.11368 0.12382-0.01916 0.0135 0.01916-0.0135zm-0.73581 1.2068c-0.01149-0.0439-0.03072 0.0643 0 0zm-1.7895-0.9073c1.3939-0.23743-1.2428-0.29598-0.06104 0.007l0.06104-0.007zm-7.9777-6.9573 0.06406 0.0107-0.06406-0.0107zm5.5662 10.115c-0.06257-0.0328-0.0061 0.0284 0 0zm2.58-6.253 0.01581-0.003-0.01581 0.003zm0.80121 4.2624c-0.0058 0.0507-0.74782 0.13082-0.70894 0.10882 0.1818 0.30404 0.52479 0.0129 0.63975 0.0228 0.04466-0.0354 0.01685-0.10238 0.06919-0.13166zm-1.028-0.35118c0.07302-0.0344-0.05186-0.10139 0 0zm0.0041 0.0844c0.12534-0.12145-0.06672-0.1117 0 0zm0.79706-2.0621c0.06501 0.0619-0.05285-0.0206 0 0zm-2.4075 2.9604c-0.06853 0.066 0.05787 0.006 0 0zm2.4763-3.3784c-0.04899-0.041-0.02708 0.0903 0 0zm0.04435 1.9952 0.000691-0.0134-0.000691 0.0134zm-2.5886 1.622c-0.19045 0.13161 0.05134 0.12768 0 0zm2.5646-1.4106c0.05145 0.13489 0.0081 0.0484 0 0zm0.02038-0.0707 0.000384 0.00016-0.000384-0.00016zm0.0105-0.016c0.05926-0.0982 0.0817-0.13332-0.0015-0.0261l0.0015 0.0261zm-1.231-0.84806c0.02212-0.0474-0.06042-0.003 0 0zm-5.3576-1.2601c-0.13208 0.15003-0.06255 0.2719 0 0zm0.0341 0.11737c-0.06814 0.35948 0.13005-0.0449 0.16588-0.0308-0.1946-0.58424-0.1035 0.21026-0.16588 0.0308zm-0.1081-1.175 0.0151 0.0127-0.0151-0.0127zm-0.03871-0.0707 0.01366 0.002-0.01366-0.002zm0.09801 1.018c-0.09197-0.093 0.04658 0.14041 0 0zm-0.20832 1.9107c0.66214 0.23682 0.34983-0.31514 0 0zm0.28845-2.798-0.01351-0.00081 0.01351 0.00081zm0.13842 1.1784c-0.01363 0.18683 0.04107-0.0811 0 0zm0.0056-0.15301c0.05451 0.29553 0.0647-0.19952 0 0zm-0.08895-0.57532-0.0071-0.007 0.0071 0.007zm-0.05638-0.43291 0.03247 0.003-0.03247-0.003zm0.12305 1.8005c0.2782-0.13421 0.06802-0.11698 0 0zm0.07609-0.98791 0.0098 0.00059-0.0098-0.00059zm-0.12141-0.80259 0.06979 0.0241-0.06979-0.0241zm-3.6983-1.3802c-0.05928-0.0424 0.01959 0.0415 0 0zm0.07482-0.0325 0.04932 0.0119-0.04932-0.0119zm-0.45729-0.54152c-0.06601-0.007 0.04135 0.0431 0 0zm0.375 0.11619c-0.10581-0.0559 0.0264 0.0699 0 0zm0.08803 0.0112 0.05942 0.005-0.05942-0.005zm0.0613 0.0401c0.07541 0.0105-0.04362-0.0586 0 0zm-0.4278 0.79316c-0.12386-0.0305 0.0502 0.0912 0 0zm3.629 1.5065c0.06028 0.0908-0.01006-0.15174 0 0zm-0.0762-1.6196 0.01292-0.0187-0.01292 0.0187zm-3.4157-0.12684c0.09012 0.028-0.02229-0.0422 0 0zm3.5097 0.18886 0.0027-0.004-0.0027 0.004zm-3.56-0.25c-0.05069 0.0581 0.08538-0.005 0 0zm3.3504 0.19439c0.13816-0.004 0.07614-0.1851 0 0zm0.22316 0.89604 0.01024-0.002-0.01024 0.002zm0.9131 3.3685 0.02084-0.0188-0.02084 0.0188zm-0.38432-1.1705 0.0018 0.002-0.0018-0.002zm0.30802 0.78645 0.0035-0.006-0.0035 0.006zm-0.10472-0.43819-0.0082 0.009 0.0082-0.009zm-0.02929 0.47455 0.01129-0.0196-0.01129 0.0196zm-0.23704-2.0606-0.0047 0.006 0.0047-0.006zm0.21892 1.5695 0.01283-0.009-0.01283 0.009zm0.13678 0.69694c-0.16224 0.21039 0.18172-0.067 0 0zm0.07835 0.0225 0.000461-0.0115-0.000461 0.0115zm0.07748-0.254-0.02171 0.0127 0.02171-0.0127zm-0.03431 0.18205-0.01924 0.001 0.01924-0.001zm-0.16432-0.56488-0.0055 0.004 0.0055-0.004zm0.0341 0.51997-0.0305 0.0164 0.0305-0.0164zm0.07174 0.13212c-0.03787 0.0376 0.04771-0.005 0 0zm-0.11829-0.71052-0.0061 0.007 0.0061-0.007zm-0.24457-0.31488c0.13151-0.14428-0.08577 0.11203 0 0zm0.01618-0.0544 0.000384 0.005-0.000384-0.005zm-0.16023-1.5107-0.02942 0.01 0.02942-0.01zm-0.02632-0.0202-0.02043 0.007 0.02043-0.007zm-0.0063 0.35503 0.02221-0.006-0.02221 0.006zm0.09151-0.80387-0.0277-0.007 0.0277 0.007zm-0.04158 0.51398c-0.04604 0.0571 0.05382-0.014 0 0zm-0.29476-0.72972h-0.01256 0.01256zm0.39773 2.6623c-0.07909 0.0503 0.08089 0.0433 0 0zm0.034-0.0974 0.01946 0.009-0.01946-0.009zm0.0075 0.18579c-0.0097 0.0965 0.09604-0.0178 0 0zm-0.48166-1.795c-0.05605 0.0601 0.13351 0.10824 0 0zm-0.02274 0.0632c-0.01657 0.17711 0.08291-0.086 0 0zm0.41766 1.3803-0.0137-0.012 0.0137 0.012zm-0.39687-0.13279 0.0013 0.0164-0.0013-0.0164zm-13.396 1.0271-0.01045 0.01 0.01045-0.01zm12.871-3.4611-0.0064 0.12296 0.0064-0.12296zm-0.50542-3.8601c0.83869-0.0645-0.28585-1.0275-0.07547-0.11572l0.07547 0.11572zm0.40577 2.5884c-0.35746-0.62749-0.1019 0.71214 0 0zm0.14164-0.59832c0.25928-0.30037-0.52856-0.12484 0 0zm-0.07082 1.7562-0.01151 0.013 0.01151-0.013zm0.0013 0.10308-0.0053 0.006 0.0053-0.006zm-0.51224-2.0461c-0.43502 0.013-0.43392-0.32718-1.0027-0.48535-0.36119-0.26101-0.53994-0.0706-0.31533 0.65256-0.46525 0.53896-0.2952 0.30888 0.18364 0.18158 0.23435 0.69804 0.41539-0.84198 0.66038-0.18533 0.22874 0.004 0.38824 0.1104 0.47398-0.16346zm-0.94146-1.017c-0.08794 0.006 0.15209 0.0668 0 0zm-0.09084 0.18205c-0.34438-0.0653 0.39148 0.32723 0 0zm-0.20253 0.0532c-0.22183 0.0421 0.30598 0.31638 0 0zm0.23284-0.12925-0.0081 0.0175 0.0081-0.0175zm0.70524 1.6122c0.13229-0.64586-0.75259 0.54393-0.03558 0.12225l0.03558-0.12225zm1.6269-1.3219c0.06367-0.0324-0.04507-0.0522 0 0zm-0.73699 2.545c-0.02805-0.0928-0.05188 0.14759 0 0zm0.0275-0.0698c0.0057-0.11823-0.07635 0.082 0 0zm-0.0082 0.20028 0.0023 0.0168-0.0023-0.0168zm-0.0107 0.0199 0.0033-0.0104-0.0033 0.0104zm0.76638-1.9326c0.33372-0.0148-0.12552-0.0584 0 0zm-0.14589-0.87535c0.09009 0.18197-0.04737-0.14004 0 0zm-0.42027 0.676c-0.25989-0.25649-0.25822 0.15007 0 0zm-0.21666 2.2787-0.0099-0.002 0.0099 0.002zm-0.03236-0.0873-0.01221 0.00004 0.01221-0.00004zm-0.0078 0.0286 0.003-0.008-0.003 0.008zm-1.4638-2.9664c-0.11939-0.0151 0.01196 0.0652 0 0zm1.4595 2.7278-0.01195 0.026 0.01195-0.026zm0.03447 0.31754 0.0059 0.004-0.0059-0.004zm0.0062-0.2589-0.0075 0.0137 0.0075-0.0137zm-1.5811-2.86 0.0087-0.01-0.0087 0.01zm-1.1144-1.7725c0.08487 0.15611 0.24863-0.0839 0 0zm0.34289 0.86798c-0.28565-0.0671 0.18427 0.52597 0 0zm0.92052-0.92836c0.21892-0.28099-0.22637 0.16369 0 0zm-0.62658 0.0984c0.10064-0.1411-0.03692 0.0274 0 0zm2.1678 3.0339c0.08159 0.0489 0.0005-0.0696 0 0zm-3.2425-2.6214c-0.01529-0.157-0.05517 0.12529 0 0zm0.0096 0.10835c0.06085 0.0656-0.0033-0.0697 0 0zm0.82962-3.25c-0.21738-0.35249-1.0026 0.27856-0.85495 0.19132-0.29922-0.0742-0.33714 0.1241-0.47688-0.19105-0.41906 0.0767 0.38387-0.13613-0.214-0.20438 0.0525-0.0835-0.74126-0.44228-0.52188-0.2155-0.60952 0.0902 0.95133 0.67398 0.27834 0.33159 0.33481 0.25722 0.15512 0.84486 0.62054 0.75799 0.05971-0.31393 0.27397 0.15516 0.45688-0.0992 0.27213-0.0334 0.30895-0.11345 0.76874-0.19962-0.0082-0.2491-0.0065-0.62157-0.02862-0.33248l-0.02817-0.0387zm-0.90444 3.1901c0.09342 0.0126-0.10772-0.15392 0 0zm3.3011 2.5853c-0.03084-0.0728-0.09967 0.0763 0 0zm-2.2842-4.9865c0.14042 0.8514 1.3588-0.15124 0.17262-0.006l-0.08659-0.01-0.08603 0.0158zm2.2159 6.345 0.0033 0.008-0.0033-0.008zm-0.51444-4.2792c0.26277 0.30907 0.06861-0.20197 0 0zm-0.349-0.3c-0.29001-0.0734 0.05012 0.3036 0 0zm-0.07999 2.6119c-0.06559 0.0306 0.05406 0.0234 0 0zm-0.30945-2.2702c0.24334-0.0272 0.08372-0.55954 0 0zm0.21313 0.0945c-0.13247-0.0469-0.0029 0.22845 0 0zm-0.053 0.22183c0.17774-0.033-0.12969-0.14999 0 0zm1.0689 4.231-0.000385-0.008 0.000385 0.008zm-0.39466-4.6472c0.16706 0.0483-0.07903-0.12547 0 0zm0.42769 4.3079 0.0037-0.0291-0.0037 0.0291zm-1.226-4.5905c-0.07901 0.26781 0.18265-0.19125 0 0zm1.235 4.5973-0.0025-0.0006 0.0025 0.0006zm-0.19239-2.0556c-0.04864 0.15034 0.17246-0.11815 0 0zm-0.06672-2.1829c-0.14251-0.18074 0.01841 0.12562 0 0zm0.01562 0.0969c-0.27089 0.34138 0.51463-0.019 0 0zm2.5873 0.0589c0.02607 0.11597 0.14089-0.0441 0 0zm2.2284 3.3243c0.12802 0.0304-0.03643-0.13143 0 0zm-0.07021-0.005c0.13021 0.0406-0.02732-0.13892 0 0zm0.39338 0.29271c0.02623 0.25222 0.0045 0.0633 0 0zm0.03779 0.27662c0.1463 0.0668 0.10852-0.10231 0 0zm-0.31688-0.49119c-0.1053 0.098 0.15834 0.023 0 0zm0.04373 0.0335c-0.05052 0.12445 0.074-0.12273 0 0zm-1.097-0.69c0.06969 0.0844-0.0092-0.10694 0 0zm-0.31447-0.22798c0.13944 0.14481 0.14602-0.0781 0 0zm-0.51218-0.8413c0.22953 0.034 0.02011-0.21538 0 0zm-0.01357 0.35861c-0.05643 0.0529 0.08924 0.002 0 0zm0.51945 0.41863c0.0546-0.0126-0.03965-0.0961 0 0zm-0.42344-0.53523c0.0031 0.13904 0.22333 0.0347 0 0zm0.16059 0.0853c-0.69116 0.38419 0.21193 0.12762 0 0zm1.973 1.819c-0.01387 0.10041 0.21029-0.0499 0 0zm3.2644 2.1024c0.0959 0.0172-0.0075-0.0847 0 0zm0.0089 0.008c-0.01139 0.0723 0.05661-0.0276 0 0zm0.29235-0.13913c-0.06201-0.0121 0.0421 0.0821 0 0zm-0.08946-0.01c0.10999 0.0847 0.07778-0.18521 0 0zm0.11942-0.16372c0.07198 0.14286 0.08986-0.13687 0 0zm-0.63349-0.21435c0.06775 0.0702 0.02236-0.11928 0 0zm-2.7551-1.413c0.15237-0.0661-0.03917-0.0367 0 0zm-4.2126-2.1689-0.01866 0.0213 0.01866-0.0213zm6.9269 3.5128c0.06925 0.0442-0.04731-0.10143 0 0zm-5.1836-3.7175c-0.0644 0.11856 0.10437-0.0386 0 0zm4.9601 3.2821c0.07567-0.045-0.0493-0.1115 0 0zm-2.3775-0.89492c0.04942 0.0695 0.03196-0.0916 0 0zm0.90454 0.0888c0.1655 0.0537 0.0048-0.17959 0 0zm-1.1656-0.37541c-0.02777 0.11842 0.07643-0.0323 0 0zm-2.4771-2.6082c0.15294 0.19563 0.19321 0.11772 0 0zm-4.0745-1.9215c-0.39133-0.032-0.2587-0.14937 0 0zm-0.91207 0.0592c-0.32225 0.36685 0.09348-0.0762 0 0zm0.96384-1.1823c-0.51378 0.0858 0.23442 0.34197-0.23197 0.26188 0.36167 0.25658-0.24549-0.13437-0.10881 0.0143-0.07134-0.0662-0.1312 0.3956-0.2216 0.007 0.14094-0.56786-0.58108 0.21173-0.69462-0.18305 0.28854-0.018 0.17791 0.12788 0.04904 0.11244-0.17029 0.30133 0.47268 0.30159-0.0497 0.44104 0.61282 0.21154-0.03752 0.65536 0.19927 0.30972-0.60078-0.13278 0.01034-1.7409-0.7305-0.90044-0.08975 0.39186-0.26831 1.1178 0.36496 1.0632 0.11144 0.0533-0.62673 0.10643 0.0085 0.37003 0.25823-0.12767 0.23427 0.1038 0.70497 0.041 0.72444 0.0687-0.16555-0.35945 0.5637-0.0183-0.4771-0.27906 0.69749-0.001 0.11983-0.44136-0.0071-0.10689 0.50754 0.31085 0.48038 0.21456 0.17222-0.009 0.39562 0.53134 0.34817 0.42972 0.13153-0.42887 0.53608-0.28395 0.42477-0.0864 0.22779 0.20316 0.77616 0.57524 0.38384 1.088 0.61232 0.35308-0.34414 0.48222 0.02282 0.67347 0.12718 0.13214-0.66628-0.36883-0.53632 0.3019 0.89422 0.24049 0.13605-0.15603 0.7419-0.0855-0.12838-0.28519 0.21971 0.0523 0.13796-0.0832 0.08524-0.1546 0.57817 0.3355 0.34119 0.11173 0.18877 0.0642 0.51493 0.0894 0.32949 0.0654-0.01082 0.20569 0.20645 0.26924 0.5339 0.22859 0.11539 0.0842 0.60491-0.45651 0.86482-0.11783-0.24432-0.10889-1.0045-0.39357-0.75831-0.29137-0.36287-0.21985-0.15209-0.3006 0.10503-0.15608 0.67446 0.27966 0.26192 0.0619 0.53497 0.14122 0.24462 0.0521-0.20786-0.53122 0.02788-0.31097-0.30796-0.26233 0.45234 0.16348-0.07427-0.16659-0.03571-0.19003-0.51767-0.20844-0.32832-0.243-0.0772-0.24475-0.49314-0.46574-0.34379-0.16656-0.31299-0.15046-0.14435-0.0883-0.40854-0.17079-0.16736-0.23554-0.19817-0.0506 0.13279-0.13953-0.70928-0.15428 0.7-0.36739-0.04386-0.26358 0.26286 0.0296 0.29568 0.23296 0.42067-0.12433-0.05296 0.44973 0.31803 0.3547 0.24024 0.35432-0.09274 0.23567 0.52927 0.22347 0.22891 0.11639 0.17616-0.0797 0.10302-0.26083-0.09591-0.3413 0.33738-0.00088 0.4242-0.25484 0.12172-0.23218-0.42627-0.0378 0.15934-0.29469-0.0304-0.30999-0.36681-0.26452-0.56301 0.0964-0.39821 0.10283-0.03208-0.33529-0.29764-0.29479-0.28574-0.10916-0.08597-0.40209-0.20016 0.0539-0.29062-0.2765-0.0127 0.43092-0.05352 0.0139-0.21353 0.19057-0.07278-0.16021-0.34003-0.19143-0.28092-0.10481 0.24436-0.11512-0.45296 0.002-0.24756-0.0268 0.08698-0.11819 0.37324-0.34944 0.06648-0.17685-0.10766-0.0789-0.51935-0.0788 0.06249-0.18332-0.0868-0.28657-0.92196 0.31293-0.19544-0.22431-0.23741-0.61011-0.46519 0.68156-0.31661-0.10249-0.40516 0.70211 0.24291-0.66972-0.33244 0.001-0.03815-0.37887-0.32013-0.0879-0.18624 0.10908 0.25513-0.66033-0.45584 0.28543-0.07865-0.3761-0.49088-0.31753-0.18831 0.52163-0.44759-0.0118 0.006 0.0517-0.12026 0.24177-0.12781 0.1165-0.07998 0.0583 0.0022-0.59796-0.21726-0.0532-0.30216 0.13207 0.32491-0.53097-0.28518-0.38816zm2.129 1.1687c-0.34358 0.0123 0.19199 0.0329 0 0zm0.89548 2.943c0.29366-0.10966-0.34193-0.17666 0 0zm0.99026 0.72321c0.13256 0.2756 0.05348-0.30863 0 0zm-2.0544-4.0571c-0.15988-0.036 0.0037 0.17558 0 0zm2.1635 4.8106c0.0019-0.16131-0.10962 0.014 0 0zm-0.51126-2.8619c-0.03986-0.21595-0.06658 0.16865 0 0zm-0.55131-1.4094c0.01944 0.14461 0.10638-0.0349 0 0zm0.18046 0.10482c-0.01459-0.10225-0.13798 0.11873 0 0zm0.66868 1.56c0.04855 0.14629 0.20953 0.002 0 0zm-0.52186-1.5256c0.10154-0.002 0.01565-0.19084 0 0zm-0.90296-0.14968c0.14902 0.003 0.01666-0.12349 0 0zm-4.4323 0.49257c-0.07 0.025 0.0052 0.11324 0 0zm2.688-1.5068c0.1334-0.007-0.06996-0.11273 0 0zm-0.04624 0.0408c0.17512 0.20562 0.03393-0.1316 0 0zm1.3275 0.43819c-0.12394 0.0454 0.05787 0.084 0 0zm-0.99984-0.3327c-0.12026 0.26295 0.22896-0.05 0 0zm-1.8969-1.7861c-0.05218-0.27644-0.09673 0.17861 0 0zm-0.31222-0.0406c0.04561-0.0567-0.06124 0.005 0 0zm0.21656-1.3731c0.102 0.0944 0.02853-0.0849 0 0zm-11.541 11.029 0.03599 0.0205-0.03599-0.0205zm11.441-10.541c-0.09337 0.001 0.0304 0.0854 0 0zm-2.8923-0.1908c0.38364 0.069-0.14434 0.33049 0.28544 0.37306 0.55706 0.57424-0.24413-0.30267-0.004-0.38163-0.00096-0.19314-0.33725-0.18942-0.28142 0.009zm0.52647-0.4384c0.1939 0.49652 0.18481-0.25741 0 0zm1.6368 1.0207c0.09441-0.0671-0.1373-0.0526 0 0zm-1.4785 0.5807c-0.20891 0.002-0.09087 0.45352-0.1401 0.27658-0.0292-0.0988-0.41704-0.2969-0.14196 0.10679-0.58265 0.0557 0.56326 0.0579 0.04631 0.16021 0.09571 0.27837 0.40666 0.22134 0.38744 0.14896-0.13233-0.54608 0.4652-0.0916-0.14812-0.73042l-0.0036 0.0379zm0.22035-1.9141c0.20561 0.01-0.13855-0.0467 0 0zm-0.07389 0.28559c0.26939 0.31091 0.46636 0.19139 0.3346 0.27378 0.2999 0.0336-0.17264 0.53188-0.01752 0.26536 0.05833 0.0949 0.51129 0.47811 0.39843 0.10301 0.25252 0.10409 0.30092-0.29906 0.25461-0.26453 0.31568-0.37572-0.20967-0.15219-0.1628-0.46371-0.06707-0.0173-0.91074-0.5994-0.63495-0.4817-0.04567 0.0973-0.31422 0.42428-0.12828 0.36583-0.12904 0.15661 0.44426 0.0502-0.04409 0.20196zm-0.12546 0.74708c0.25885 0.77316 0.47541-0.36272 0.03277-0.0347l-0.0306 0.003-0.0022 0.0314zm0.44008-1.5198c0.30741 0.0999 0.20506 0.63016 0.22767 0.2756 0.714-0.47576-0.21671 0.30066 0.25938 0.027 0.29663-0.53981-0.05462 0.39233 0.24247 0.0218 0.1072-0.004 0.26484-0.0583 0.39571-0.46747-0.16388 0.27687 0.45709 0.54531 0.05355 0.38772-0.10256 0.5165-0.63177 0.2123-0.0047 0.48439-0.88896-0.5014-0.14443 0.48557-0.2963 0.32851 0.4596 0.0421-0.62205 0.32349-0.17355 0.21838-0.0186 0.61347 0.28246 0.61917 0.29726 0.2498-0.15879 0.12695 0.16972 0.4501 0.21897-0.0347 0.25584 0.74462-0.98994-0.1257-0.32436 0.49211-0.42333 0.72526-0.24023 0.0533-0.02382 0.39303 0.24181-0.20104 0.46612 0.0721 0.43414-0.25814 0.18923 0.08 0.11229-0.0883 0.41956 0.14312 0.43015-0.40696-0.61743-0.34248-0.33896-0.42581-0.13678-0.23449 0.53278-0.0444 0.3711-0.45609 0.16193-0.12007 0.14764-0.59478-0.2593-0.39128-0.06445-0.20181 0.61777-0.22874-0.0658-0.20439 0.55338-0.30645 0.68498-0.48021 0.47753-0.40457-0.1919-0.25622 0.0082-0.2141 0.02154-0.95454-0.59349 0.76114-0.0029-0.085-0.25191 0.0628 0.3916-0.12958-0.46968-0.45446-0.13909-0.55163-0.08259 0.21511-0.71988 0.41998-0.51648 0.15647 0.1143 0.12841 0.20382 0.50371-0.07883 0.25323-0.35744-0.26668-0.2425 0.40604-0.31445 0.24787 0.54783 0.21524-0.69641-0.21248-0.1512 0.21143-0.21371-0.059-0.30895-0.0104-0.48008 0.19531zm-0.1018 4.0695c-0.1089-0.21436-0.07702 0.19257 0 0zm-0.05802 0.12511c0.09653 0.0858 0.02079-0.1573 0 0zm0.1906-1.4874c0.11634 0.28851 0.05148-0.19357 0 0zm-0.33301 0.66704c0.06289 0.0587 0.06741-0.12501 0 0zm0.24017-0.42866c-0.36279 0.29447 0.64893 0.52356 0.22196-0.046-0.03321-0.0975-0.25787-0.0575-0.22196 0.046zm-0.10513-0.0786c-0.17018 0.22772 0.22184-0.11895 0 0zm0.72275-0.65961c-0.17547 0.11262 0.18615 0.22061 0 0zm0.09775 0.16883-0.02678-0.004 0.02678 0.004zm0.60712-0.13652c0.03651 0.0969 0.02409-0.043 0 0zm-0.66939-0.75691c0.02504 0.12631 0.01614-0.16544 0 0zm-0.61885 1.8729 0.03919-0.0349-0.03919 0.0349zm-0.1737-1.4436c0.48405 0.3381 0.33618-0.40826 0 0zm0.55684-0.0328c0.1285 0.45446 0.31974-0.20243 0 0zm-1.6024-0.005c0.10945 0.57032 0.15977-0.0874 0 0zm0.76823 1.7696c0.08281 0.18222-0.31149 0.22317 0 0zm-6.0497 0.72198c0.06321 0.0107-0.07519-0.11538 0 0zm-0.51065-0.43793c0.04073 0.10998 0.11787-0.0799 0 0zm1.8786 0.42308c0.07142-0.005-0.02586-0.0558 0 0zm-1.3299-0.099c0.1112-0.0143-0.02232-0.0602 0 0zm0.23489 0.13007c0.07958 0.007-0.03065-0.0554 0 0zm-3.4162 7.5499c-0.08759-0.0232 0.05994 0.0574 0 0zm4.9034-7.1908 0.02343-0.0184-0.02343 0.0184zm-4.8619 7.3576-0.01671 0.01 0.01671-0.01zm0.02284-0.15075-0.007 0.003 0.007-0.003zm0.0069-0.12731c-0.40091-0.19854-0.03385 0.54431-0.0657 0.46907 0.09239 0.0499 0.24415-0.39492 0.04158-0.41751-0.1631-0.12343 0.07451 0.0445 0.02412-0.0516zm-0.02402 0.20617c-0.09798-0.0879-0.11198 0.0893 0 0zm-0.000115 0.3285c-0.08458 0.0156-0.02838 0.0821 0 0zm-0.23156-0.88642 0.0015 0.01-0.0015-0.01zm7.5643-8.6722-0.000729-0.003 0.000729 0.003zm0.21006-0.24892c-0.33385-0.51291-0.42299-0.12295-0.47458-0.0118 0.02032 0.18109-0.45666 0.24623-0.01661 0.4135 0.27863-0.2721 0.19843 0.0219 0.53608 0.007-0.88853 0.20017-0.06303 0.39287 0.31864 0.13891 0.32108 0.25082-0.02776-0.0809 0.24703-0.36092-0.15418-0.004-0.17147-0.85859-0.31683-0.23655 0.16169 0.45003-0.2099 0.45461-0.29372 0.0499zm0.78948 1.2149c-0.64635-0.24059 0.13201 0.774 0 0zm-3.2391 0.11169 0.002-0.008-0.002 0.008zm2.5629-2.4117c0.56777 0.24249 0.53958-0.38775 0 0zm-0.06058 0.37116c0.57557 0.43551 0.34584-0.8349 0 0zm-0.79367 0.69361c0.32292-0.44249-0.44957 0.24838 0 0zm-1.652 1.363c0.18353 0.78095 0.67626 0.40228 1.1649-0.0499 0.91017-0.20876 0.18995-0.59558 0.01604-0.63257-0.42526-0.81299-0.71962 0.23803-1.1266 0.56057 0.006 0.0153-0.14094 0.10152-0.05428 0.12193zm1.3127-1.5208c-0.11613 0.134 0.08947-0.0811 0 0zm0.98468-0.72542c0.18366 0.21712 0.03667-0.27504 0 0zm-1.1595 0.54353c0.22977 0.27619 0.45544-0.0453 0.4389 0.13155 0.25257-0.57218 0.20119 0.2675 0.4449-0.29051 0.36986-0.36015-0.3773-0.3142-0.66744 0.0588-0.0854-0.0497-0.17903 0.0294-0.21636 0.10017zm1.0236-0.0652c0.13494 0.21824 0.23991-0.14632 0 0zm2.1658 3.4288c-0.08401-0.0287 0.06767 0.0782 0 0zm-1.2762 0.66079c-0.1619-0.17341-0.052 0.17062 0 0zm-0.84022 0.19213c-0.09037-0.0898-0.01814 0.11907 0 0zm1.2851-0.75691c-0.05504 0.0199 0.0416 0.0711 0 0zm0.06176 0.52606c-0.0195-0.22841-0.17903 0.11687 0 0zm-1.419 0.30177 0.02901 0.003-0.02901-0.003zm1.539-0.68219c0.01806-0.23291-0.08441 0.0983 0 0zm-0.10749 0.15183c0.04936 0.0123 0.01316-0.1089 0 0zm-1.744 0.42703c-0.11661 0.0831 0.10258-0.0551 0 0zm0.11122-0.27935c0.05371-0.0256-0.07866-0.0302 0 0zm0.18363 0.2837c0.05212-0.0529-0.07695-0.0535 0 0zm-0.74846-0.40787c0.02029-0.0458-0.08632-0.002 0 0zm0.34724 0.19689c-0.08607 0.0987 0.11032-0.0268 0 0zm0.38463 0.0863-0.04943 0.0312 0.04943-0.0312zm-0.19106-0.1461c0-0.0946-0.13876 0.0646 0 0zm-0.57752 0.18701 0.06683 0.004-0.06683-0.004zm2.3746-0.64609c-0.27567-0.45273-0.73528-0.68426-0.66105-1.5253-0.55402-0.90964-0.28353 1.3195-0.48579 0.1416-0.35484-0.53975-0.65112-0.14007-0.35447-0.0173-0.20164 0.2632 0.06671-0.5903-0.38724-0.16236-0.145 0.0332 0.15909-0.65563-0.4757-0.24242-0.47828 0.22672-0.36524 0.79749-0.33371 0.66297 1.0163 0.009-0.62294 0.11119 0.18989 0.43867 0.56088-0.0578 1.0118 0.5232 0.17546 0.19413-0.99318-0.067 0.09631 0.82408 0.07232 0.61882-0.12903 0.52107 0.7967 0.27798 0.73744 0.28382 0.60767-0.6117 0.69409 0.26008 1.3637-0.0789-0.11235-0.28242-0.41113-0.0503-0.11123-0.33513 0.15164-0.0712 0.1605 0.0639 0.27036 0.0213zm-1.6969 0.65818c-0.17287 0.0627 0.09517-0.007 0 0zm2.5391-0.53344c-0.17619-0.23488-0.04483 0.14374 0 0zm-0.05526-1.6318c-0.04741 0.02 0.05179 0.0563 0 0zm0.07405 1.6074c0.07395 0.17857 0.18946-0.20151 0 0zm-0.13985 0.008c-0.20207-0.34839-0.06127 0.40382-0.31873 0.3434 0.47668 0.29793 0.7481-0.0869 0.33404-0.32425l-0.01024-0.014-0.0051-0.005zm0.18793-1.1951 0.000384 0.003-0.000384-0.003zm-0.0074 0.0689c-0.07269-0.006 0.0208 0.11244 0 0zm0.60451-1.0323c-0.40253-0.16102-0.8763-0.0596-0.70476 0.4535 0.16959 0.88026 0.30724 0.20859 0.28993 0.11181 0.37322 0.11335 0.32634-0.34467 0.41483-0.56531zm-1.3614 2.7167c-0.04498-0.0343 0.01026 0.0986 0 0zm0.0107-0.28027c0.0568-0.1417-0.12334-0.0731 0 0zm-0.12479-0.65039c0.09956-0.37495 0.09917-0.28842 0 0zm0.07144-0.15491c-0.16456-0.0737 0.07684 0.16617 0 0zm-0.02356 0.90542c0.14436-0.20581-0.14271-0.12301 0 0zm1.5078-0.62869c-0.07113-0.003 0.0178 0.052 0 0zm-1.2343 0.95724c-0.04484-0.0484 0.01464 0.0779 0 0zm0.36865-2.1052c-0.22175-0.28536-0.40521-0.24666-0.1292-0.60549-0.54796-0.23781-0.5253 0.1727-0.5842 0.0608 0.0083 0.12102 0.30341 0.37433-0.05642 0.37697-0.52716-0.34716 0.53681 0.99577 0.48685 0.66759-0.1036-0.28718 0.33339-0.0489 0.28297-0.49983zm-2.2125-0.13842 0.0042 0.00057-0.0042-0.00057zm1.2316-1.6763c-0.39251 0.16821 0.37951 0.0659 0 0zm-0.18988 0.46871c0.04635 0.32019 0.22527-0.26637 0 0zm-1.9407 2.8987 0.004 0.0243-0.004-0.0243zm1.0083-1.7467-0.0086-0.009 0.0086 0.009zm0.99324-1.7582c0.18528 0.37989 0.21879-0.2014 0 0zm-0.59545 1.3664c0.13026 0.0589 0.0112-0.0996 0 0zm0.85682-1.1308c-0.31669 0.00015-0.14698 0.18563 0 0zm0.15675-0.8263c-0.37841-0.11153 0.06754 0.21995 0 0zm-0.16361-0.20422c-0.13461 0.0132 0.03449 0.13257 0 0zm0.17436 0.73146c-0.1955 0.18283 0.2264-0.0951 0 0zm-0.17626 0.34898c-0.40094 0.19585 0.2103 0.0203 0 0zm-1.2751 1.4745 0.02031 0.007-0.02031-0.007zm-1.1503 0.80822 0.03836-0.008-0.03836 0.008zm-0.0613-0.0138 0.02925 0.0249-0.02925-0.0249zm0.04358-0.0195c-0.07747-0.0151 0.0431 0.0385 0 0zm0.12572 0.0332-0.02824-0.004 0.02824 0.004zm0.43732 0.22337-0.03407-0.0143 0.03407 0.0143zm-0.40229 0.60083 0.01375 0.0155-0.01375-0.0155zm0.61855-0.5766-0.09491-0.0333 0.09491 0.0333zm0.3878-1.0331-0.01296-0.0126 0.01296 0.0126zm-1.2328 0.74636c0.06248-0.0169-0.15044-0.0285 0 0z"/></g><g id="northarrow" transform="translate(-285.23973,-142.23388)"><path id="path3770-7" d="m 305.9093,156.64795 c 0,4.78008 -3.8742,8.65314 -8.65317,8.65314 -4.78014,0 -8.65316,-3.87425 -8.65316,-8.65314 0,-4.78016 3.87422,-8.65322 8.65316,-8.65322 4.78014,0 8.65317,3.87425 8.65317,8.65322 z" style="opacity:1;fill:#ffffff;fill-opacity:1;stroke:#ffffff;stroke-width:0.89468277;stroke-miterlimit:4;stroke-dasharray:none;stroke-opacity:1"/><path id="path3770" d="m 304.98197,156.64794 c 0,4.26783 -3.45902,7.72582 -7.72584,7.72582 -4.26786,0 -7.72583,-3.45905 -7.72583,-7.72582 0,-4.26787 3.45903,-7.72588 7.72583,-7.72588 4.26788,0 7.72584,3.45907 7.72584,7.72588 z" style="opacity:1;fill:none;fill-opacity:1;stroke:#6d6d6d;stroke-width:0.79922527;stroke-opacity:1"/><path id="path3774" d="m 297.25613,156.64794 0,-8.5251" style="fill:none;stroke:#000000;stroke-width:0.06660211"/><path style="fill:#ffffff;stroke:#ffffff;stroke-width:0.91174924;stroke-miterlimit:4;stroke-dasharray:none;stroke-opacity:1" d="m 297.25844,143.48074 8.79232,22.43079 -8.81116,-8.81115 -8.81114,8.81115 z" id="path3778"/><path style="fill:none;stroke:#6d6d6d;stroke-width:0.26640841;stroke-linecap:square;stroke-opacity:1" d="m 297.25613,144.80527 7.72584,19.5677 -7.72584,-7.72587 -7.72583,7.72587 z" id="path3780"/><path id="path6038" d="m 297.25632,144.66607 0,0 0,0 -7.72602,19.56818 7.72602,-7.72606 0,0" style="fill:#6d6d6d;fill-opacity:1;stroke:none;stroke-width:0.29611364;stroke-linecap:square;stroke-opacity:1"/></g></defs></svg>